<?xml version="1.0" encoding="iso-8859-1"?>
<!-- Generator: Adobe Illustrator 18.0.0, SVG Export Plug-In . SVG Version: 6.00 Build 0)  -->
<!DOCTYPE svg PUBLIC "-//W3C//DTD SVG 1.1//EN" "http://www.w3.org/Graphics/SVG/1.1/DTD/svg11.dtd">
<svg version="1.1" id="Capa_1" xmlns="http://www.w3.org/2000/svg" xmlns:xlink="http://www.w3.org/1999/xlink" x="0px" y="0px"
	 viewBox="0 0 455.437 455.437" style="enable-background:new 0 0 455.437 455.437;"
	 fill="#fff" xml:space="preserve">
<g>
	<path d="M210.795,390.437h-89.656c-7.993,0-14.496-6.503-14.496-14.496V243.727c0-7.993,6.503-14.496,14.496-14.496h84.156
		c4.143,0,7.5-3.358,7.5-7.5s-3.357-7.5-7.5-7.5h-84.156c-7.993,0-14.496-6.503-14.496-14.496V186.25
		c0-7.993,6.503-14.496,14.496-14.496H223.45c5.616,0,10.622,3.144,13.066,8.206c1.801,3.729,6.282,5.295,10.015,3.493
		c3.73-1.801,5.294-6.285,3.493-10.015c-1.71-3.541-4.106-6.63-6.966-9.169c6.062-5.406,9.888-13.268,9.888-22.01v-13.484
		c0-8.313-3.462-15.828-9.013-21.194c5.522-4.887,9.013-12.021,9.013-19.958c0-22.712-16.61-41.618-38.32-45.208V7.5
		c0-4.142-3.357-7.5-7.5-7.5h-69.662c-4.143,0-7.5,3.358-7.5,7.5v34.915c-21.711,3.589-38.321,22.495-38.321,45.208
		c0,7.937,3.491,15.07,9.013,19.958c-5.551,5.367-9.013,12.882-9.013,21.194v13.484c0,8.734,3.819,16.59,9.872,21.996
		c-6.052,5.406-9.872,13.262-9.872,21.996v13.484c0,8.734,3.819,16.59,9.872,21.996c-6.052,5.406-9.872,13.262-9.872,21.996v132.214
		c0,16.264,13.231,29.496,29.496,29.496h89.656c4.143,0,7.5-3.358,7.5-7.5S214.937,390.437,210.795,390.437z M199.626,15v26.801
		h-54.662V15H199.626z M118.298,99.278c-6.427,0-11.655-5.229-11.655-11.656c0-16.995,13.826-30.821,30.821-30.821h69.662
		c16.994,0,30.82,13.826,30.82,30.821c0,6.427-5.229,11.656-11.655,11.656H118.298z M106.642,142.258v-13.484
		c0-7.993,6.503-14.496,14.496-14.496H223.45c7.993,0,14.496,6.503,14.496,14.496v13.484c0,7.993-6.503,14.496-14.496,14.496
		H121.138C113.145,156.754,106.642,150.251,106.642,142.258z"/>
	<path d="M361.766,190.808c-1.417-1.513-3.398-2.371-5.472-2.371h-134c-2.073,0-4.055,0.858-5.472,2.371
		c-1.418,1.513-2.146,3.545-2.013,5.614l16.337,252c0.256,3.945,3.53,7.015,7.484,7.015h101.326c3.954,0,7.229-3.069,7.484-7.015
		l16.337-252C363.913,194.353,363.184,192.321,361.766,190.808z M332.928,440.437h-87.268l-15.364-237h117.996L332.928,440.437z"/>
	<path d="M239.349,219.422l13.355,206c0.256,3.945,3.53,7.015,7.484,7.015H318.4c3.954,0,7.229-3.069,7.484-7.015l13.355-206
		c0.268-4.134-2.865-7.702-6.999-7.97c-4.099-0.263-7.701,2.865-7.97,6.999l-3.175,48.974h-63.603l-3.175-48.974
		c-0.27-4.133-3.852-7.278-7.97-6.999C242.215,211.721,239.082,215.289,239.349,219.422z M320.124,282.426l-8.753,135.011h-44.152
		l-8.753-135.011H320.124z"/>
</g>
<g>
</g>
<g>
</g>
<g>
</g>
<g>
</g>
<g>
</g>
<g>
</g>
<g>
</g>
<g>
</g>
<g>
</g>
<g>
</g>
<g>
</g>
<g>
</g>
<g>
</g>
<g>
</g>
<g>
</g>
</svg>
