<?xml version="1.0" encoding="iso-8859-1"?>
<!-- Generator: Adobe Illustrator 19.0.0, SVG Export Plug-In . SVG Version: 6.00 Build 0)  -->
<svg version="1.1" id="Capa_1" xmlns="http://www.w3.org/2000/svg" xmlns:xlink="http://www.w3.org/1999/xlink" x="0px" y="0px" fill="#fff"
	 viewBox="0 0 446.118 446.118" style="enable-background:new 0 0 446.118 446.118;" xml:space="preserve">
<g>
	<g>
		<path d="M314.554,323.12h-41.998c-4.143,0-7.5,3.357-7.5,7.5v67.496c0,4.143,3.357,7.5,7.5,7.5h41.998c4.143,0,7.5-3.357,7.5-7.5
			V330.62C322.054,326.478,318.697,323.12,314.554,323.12z M307.054,338.12v10.499h-26.998V338.12H307.054z M280.056,390.616
			v-26.997h26.998v26.997H280.056z"/>
		<path d="M173.561,323.12h-41.998c-4.143,0-7.5,3.357-7.5,7.5v67.496c0,4.143,3.357,7.5,7.5,7.5h41.998c4.143,0,7.5-3.357,7.5-7.5
			V330.62C181.061,326.478,177.704,323.12,173.561,323.12z M166.061,338.12v10.499h-26.998V338.12H166.061z M139.063,390.616
			v-26.997h26.998v26.997H139.063z"/>
		<path d="M314.554,213.626h-41.998c-4.143,0-7.5,3.357-7.5,7.5v67.496c0,4.143,3.357,7.5,7.5,7.5h41.998c4.143,0,7.5-3.357,7.5-7.5
			v-67.496C322.054,216.983,318.697,213.626,314.554,213.626z M307.054,228.626v10.498h-26.998v-10.498H307.054z M280.056,281.122
			v-26.998h26.998v26.998H280.056z"/>
		<path d="M244.058,213.626H202.06c-4.143,0-7.5,3.357-7.5,7.5v67.496c0,4.143,3.357,7.5,7.5,7.5h41.998c4.143,0,7.5-3.357,7.5-7.5
			v-67.496C251.558,216.983,248.201,213.626,244.058,213.626z M236.558,228.626v10.498H209.56v-10.498H236.558z M209.56,281.122
			v-26.998h26.998v26.998H209.56z"/>
		<path d="M173.561,213.626h-41.998c-4.143,0-7.5,3.357-7.5,7.5v67.496c0,4.143,3.357,7.5,7.5,7.5h41.998c4.143,0,7.5-3.357,7.5-7.5
			v-67.496C181.061,216.983,177.704,213.626,173.561,213.626z M166.061,228.626v10.498h-26.998v-10.498H166.061z M139.063,281.122
			v-26.998h26.998v26.998H139.063z"/>
		<path d="M244.058,114.965H202.06c-4.143,0-7.5,3.357-7.5,7.5v56.663c0,4.143,3.357,7.5,7.5,7.5h41.998c4.143,0,7.5-3.357,7.5-7.5
			v-56.663C251.558,118.322,248.201,114.965,244.058,114.965z M236.558,129.965v22.164H209.56v-22.164H236.558z M209.56,171.628
			v-4.499h26.998v4.499H209.56z"/>
		<path d="M223.059,65.648c10.752,0,19.5-8.748,19.5-19.5s-8.748-19.5-19.5-19.5s-19.5,8.748-19.5,19.5
			S212.307,65.648,223.059,65.648z M223.059,41.648c2.481,0,4.5,2.019,4.5,4.5s-2.019,4.5-4.5,4.5s-4.5-2.019-4.5-4.5
			S220.578,41.648,223.059,41.648z"/>
		<path d="M362.059,431.118h-14.51V141.359c0-2.026-0.82-3.967-2.273-5.379c-1.452-1.412-3.387-2.183-5.441-2.118
			c-0.61,0.018-1.222,0.025-1.84,0.025c-33.337,0-60.458-27.117-60.458-60.448V43.498c0-4.143-3.357-7.5-7.5-7.5h-4.127
			C262.345,15.575,244.487,0,223.059,0s-39.286,15.575-42.851,35.998h-4.127c-4.143,0-7.5,3.357-7.5,7.5v29.941
			c0,12.356-3.734,23.854-10.123,33.437V86.132c0-4.143-3.357-7.5-7.5-7.5h-28.49c-4.143,0-7.5,3.357-7.5,7.5v47.357
			c-2.248,0.255-4.53,0.398-6.845,0.398c-0.619,0-1.229-0.008-1.84-0.025c-2.039-0.064-3.989,0.706-5.441,2.118
			c-1.453,1.412-2.273,3.353-2.273,5.379v289.759h-14.51c-4.143,0-7.5,3.357-7.5,7.5s3.357,7.5,7.5,7.5h278
			c4.143,0,7.5-3.357,7.5-7.5S366.202,431.118,362.059,431.118z M129.968,93.632h13.49v28.811c-4.136,2.99-8.663,5.467-13.49,7.344
			C129.968,129.787,129.968,93.632,129.968,93.632z M236.558,348.619H209.56V338.12h26.998V348.619z M209.56,401.117h4.499
			c4.143,0,7.5-3.357,7.5-7.5s-3.357-7.5-7.5-7.5h-4.499v-22.498h26.998v67.499H209.56V401.117z M251.558,431.118V330.62
			c0-4.143-3.357-7.5-7.5-7.5H202.06c-4.143,0-7.5,3.357-7.5,7.5v100.498h-80.991V148.693c39.076-2.8,70.013-35.482,70.013-75.254
			V50.998h3.479c4.143,0,7.5-3.357,7.5-7.5c0-15.714,12.784-28.498,28.498-28.498s28.498,12.784,28.498,28.498
			c0,4.143,3.357,7.5,7.5,7.5h3.479v22.441c0,39.771,30.937,72.454,70.013,75.254v282.425L251.558,431.118L251.558,431.118z"/>
	</g>
</g>
<g>
</g>
<g>
</g>
<g>
</g>
<g>
</g>
<g>
</g>
<g>
</g>
<g>
</g>
<g>
</g>
<g>
</g>
<g>
</g>
<g>
</g>
<g>
</g>
<g>
</g>
<g>
</g>
<g>
</g>
</svg>
