<?xml version="1.0" encoding="iso-8859-1"?>
<!-- Generator: Adobe Illustrator 18.0.0, SVG Export Plug-In . SVG Version: 6.00 Build 0)  -->
<!DOCTYPE svg PUBLIC "-//W3C//DTD SVG 1.1//EN" "http://www.w3.org/Graphics/SVG/1.1/DTD/svg11.dtd">
<svg version="1.1" id="Capa_1" xmlns="http://www.w3.org/2000/svg" xmlns:xlink="http://www.w3.org/1999/xlink" x="0px" y="0px" fill="#fff"
	 viewBox="0 0 297.098 297.098" style="enable-background:new 0 0 297.098 297.098;" xml:space="preserve">
<path d="M262.549,297.049c3.875,0,7.552-1.718,10.04-4.688c2.486-2.972,3.53-6.895,2.848-10.709l-26.112-146.03
	c27.231-5.645,47.773-30.025,47.773-59.158c0-33.3-26.838-60.395-59.826-60.395c-0.483,0-0.969,0.006-1.456,0.019
	c-13.23-10.38-29.485-16.039-46.374-16.039c-11.808,0-23.334,2.763-33.786,8.045c-8.431-4.41-17.777-6.711-27.454-6.711
	c-29.997,0-54.867,22.334-58.927,51.259h-16.56c-6.329,0-11.752,4.527-12.883,10.753L0.211,281.618
	c-0.694,3.818,0.344,7.749,2.83,10.729c2.488,2.979,6.17,4.702,10.051,4.702H262.549z M140.802,78.827l5.887,32.911h-89.02
	l5.975-32.911H140.802z M226.347,155.879h-45.165l-5.24-29.294h45.167L226.347,155.879z M52.913,137.923h98.457l23.771,132.942
	H28.776L52.913,137.923z M201.739,270.865l-15.876-88.8h45.166l15.879,88.8H201.739z M244.631,109.836
	c-1.605-5.535-6.69-9.436-12.563-9.436H171.26l-6.609-36.97c-1.116-6.244-6.547-10.789-12.889-10.789H95.915
	c3.699-14.401,16.771-25.074,32.286-25.074c7.071,0,13.826,2.193,19.53,6.346c4.406,3.206,10.34,3.347,14.895,0.354
	c7.993-5.256,17.266-8.034,26.814-8.034c12.274,0,24.048,4.601,33.149,12.953c2.841,2.604,6.687,3.828,10.508,3.339
	c1.428-0.181,2.793-0.269,4.173-0.269c18.551,0,33.642,15.345,33.642,34.208C270.914,92.756,259.652,106.412,244.631,109.836z"/>
<g>
</g>
<g>
</g>
<g>
</g>
<g>
</g>
<g>
</g>
<g>
</g>
<g>
</g>
<g>
</g>
<g>
</g>
<g>
</g>
<g>
</g>
<g>
</g>
<g>
</g>
<g>
</g>
<g>
</g>
</svg>
